<svg xmlns="http://www.w3.org/2000/svg" viewBox="0 0 64 64" width="64" height="64"><rect x="11.86" y="11.86" width="40.28" height="40.28" rx="6.44" ry="6.44" fill="#FAD903" transform="rotate(45 32.0 32.0)"/><path d="M30.71 45.75C30.56 45.18 30.51 43.97 30.58 43.05C30.7 41.59 30.87 41.37 31.89 41.25C33.46 41.07 34.23 42.65 33.67 44.92C33.35 46.21 33.06 46.53 32.12 46.64C31.2 46.75 30.91 46.57 30.71 45.75ZM21.63 42.37C20.85 41.58 21 41.09 22.59 39.36C24.14 37.68 24.88 37.42 25.73 38.27C26.56 39.1 26.33 39.75 24.64 41.36C22.91 42.99 22.42 43.16 21.63 42.37ZM39.32 41.24C37.89 39.78 37.74 39.44 38.16 38.66C38.82 37.42 39.6 37.53 41.39 39.1C42.54 40.11 42.89 40.73 42.8 41.56C42.59 43.31 41.21 43.18 39.32 41.24ZM29.91 38.19C25.73 36.88 24.16 31.25 27.02 27.86C30.99 23.14 38.61 25.83 38.61 31.94C38.61 33.96 37.23 36.53 35.65 37.46C34.15 38.35 31.49 38.69 29.91 38.19ZM34.55 35.38C36.1 34.37 36.67 32.22 35.9 30.36C35.14 28.55 34.11 27.95 31.79 27.95C29.39 27.95 27.95 29.48 27.95 32.02C27.95 33.53 28.17 34.03 29.26 34.95C30.78 36.23 32.98 36.41 34.55 35.38ZM30.41 32.82C29.42 30.65 32.05 29.1 33.68 30.9L34.46 31.76L33.75 32.84C32.79 34.3 31.09 34.29 30.41 32.82ZM17.81 33.22C17.2 32.96 17.09 31.1 17.66 30.75C18.46 30.25 21.26 30.13 22.05 30.55C22.62 30.85 22.84 31.35 22.75 32.14L22.61 33.28L20.48 33.36C19.31 33.41 18.11 33.34 17.81 33.22ZM41.71 33.22C41.04 32.94 41.01 31.09 41.66 30.68C42.5 30.16 44.53 30.08 45.68 30.52C46.55 30.85 46.75 31.18 46.64 32.11L46.51 33.28L44.37 33.36C43.2 33.41 42 33.34 41.71 33.22ZM22.66 24.58C20.81 22.69 20.73 21.4 22.45 21.2C23.27 21.11 23.89 21.46 24.9 22.61C26.45 24.37 26.58 25.18 25.41 25.8C24.32 26.38 24.5 26.46 22.66 24.58ZM38.4 25.39L37.63 24.53L38.44 23.58C39.97 21.78 40.88 21.12 41.83 21.12C43.53 21.12 43.39 22.6 41.52 24.51C40.59 25.46 39.68 26.24 39.5 26.24C39.32 26.24 38.82 25.86 38.4 25.39ZM30.7 21.83C30.56 21.28 30.51 20.08 30.58 19.16C30.7 17.76 30.89 17.47 31.76 17.35C33.59 17.09 34.62 19.87 33.48 22C32.83 23.2 31.02 23.09 30.7 21.83Z" fill="#fff" stroke="#000" stroke-width="3.0" stroke-linejoin="round" stroke-linecap="round" paint-order="stroke"/></svg>
