<svg xmlns="http://www.w3.org/2000/svg" viewBox="0 0 64 64" width="64" height="64"><rect x="11.86" y="11.86" width="40.28" height="40.28" rx="6.44" ry="6.44" fill="#88F2FD" transform="rotate(45 32.0 32.0)"/><path d="M31.14 46.31C30.69 46.04 30.47 45.44 30.47 44.46L30.47 43L29.56 43.18C28.06 43.46 27.9 42.5 29.26 41.37L30.47 40.36L30.47 38.21C30.47 35.51 29.72 35.11 27.19 36.46C25.84 37.17 25.5 37.56 25.5 38.37C25.5 39.89 25.12 40.6 24.32 40.6C23.88 40.6 23.51 40.24 23.36 39.65L23.13 38.7L22.32 39.27C21.34 39.96 20.08 40 19.46 39.38C18.78 38.7 18.88 38.37 20.18 37.19C21.24 36.22 21.31 36.03 20.86 35.31C20.47 34.68 20.46 34.4 20.82 34.04C21.19 33.68 21.58 33.72 22.66 34.23L24.04 34.89L25.35 34.08C28.26 32.28 28.28 31.31 25.43 29.86C24.16 29.21 23.68 29.14 22.94 29.48C21.66 30.06 20.53 30 20.53 29.35C20.53 29.04 20.7 28.69 20.91 28.56C21.56 28.16 21.34 27.29 20.53 27.03C20.11 26.9 19.59 26.47 19.38 26.08C18.53 24.48 20.26 23.26 21.87 24.32C23.04 25.09 23.08 25.08 23.32 24.16C23.56 23.25 24.93 23.13 25.27 24C25.4 24.33 25.5 25.01 25.5 25.5C25.5 26.61 28.55 28.54 29.72 28.17C30.35 27.97 30.47 27.59 30.47 25.76L30.48 23.59L29.27 22.59C27.95 21.51 28.05 20.72 29.51 20.72C30.29 20.72 30.44 20.51 30.54 19.33C30.78 16.58 33.23 16.6 33.46 19.35C33.55 20.4 33.74 20.74 34.22 20.7C36.19 20.5 36.4 21.4 34.68 22.63L33.53 23.45L33.53 25.69C33.53 27.58 33.65 27.97 34.28 28.17C35.27 28.49 38.28 26.8 38.42 25.85C38.73 23.77 38.93 23.4 39.69 23.4C40.16 23.4 40.56 23.71 40.68 24.16C40.92 25.08 40.96 25.09 42.13 24.32C43.74 23.26 45.47 24.48 44.62 26.08C44.41 26.47 43.89 26.9 43.47 27.03C42.58 27.31 42.52 27.7 43.18 28.77C43.9 29.92 42.93 30.37 41.37 29.63L40.16 29.05L38.58 29.86C35.74 31.3 35.75 32.41 38.6 34.03L40.04 34.85L41.38 34.21C42.43 33.71 42.81 33.68 43.18 34.04C43.54 34.4 43.53 34.68 43.14 35.31C42.69 36.03 42.76 36.22 43.82 37.19C45.12 38.37 45.22 38.7 44.54 39.38C43.92 40 42.66 39.96 41.68 39.27L40.87 38.7L40.64 39.65C40.49 40.24 40.12 40.6 39.68 40.6C38.88 40.6 38.5 39.89 38.5 38.37C38.5 37.56 38.16 37.17 36.81 36.46C34.24 35.09 33.74 35.37 33.61 38.2L33.49 40.56L34.68 41.18C36.17 41.95 36.1 43.09 34.57 43.07L33.53 43.06L33.53 44.49C33.53 45.52 33.32 46.04 32.79 46.32C31.91 46.8 31.98 46.8 31.14 46.31Z" fill="#fff" stroke="#000" stroke-width="3.0" stroke-linejoin="round" stroke-linecap="round" paint-order="stroke"/></svg>
