<svg xmlns="http://www.w3.org/2000/svg" viewBox="0 0 64 64" width="64" height="64"><rect x="11.86" y="11.86" width="40.28" height="40.28" rx="6.44" ry="6.44" fill="#FBA819" transform="rotate(45 32.0 32.0)"/><path d="M24.47 44.65C22.15 44.36 20.13 43.83 19.89 43.45C19.75 43.22 19.63 42.66 19.63 42.2C19.63 41.74 19.38 40.28 19.07 38.96C18.66 37.21 18.6 36.44 18.87 36.12C19.07 35.88 20.68 34.94 22.46 34.04L25.69 32.39L28.34 35.03C29.8 36.48 31 37.89 31 38.15C31 38.41 30.3 40.04 29.46 41.76L27.92 44.88L26.7 44.83C26.03 44.8 25.02 44.72 24.47 44.65ZM40.66 42.43C39.28 41.81 38.69 41.18 38.69 40.33C38.69 39.18 39.78 38.71 41.01 39.35C42.36 40.05 42.91 39.99 43.52 39.12C44.19 38.16 44.18 37.99 43.37 37.19L42.71 36.52L38.03 36.52L33.36 36.52L33.02 35.87C32.54 34.99 32.58 34.65 33.19 34.03C33.9 33.32 42.17 33.27 43.8 33.96C45.61 34.73 46.48 35.96 46.64 37.95C46.77 39.51 46.68 39.86 45.88 40.81C44.27 42.73 42.53 43.27 40.66 42.43ZM33.19 30.3C32.58 29.69 32.54 29.34 33.02 28.47L33.36 27.82L38.19 27.82L43.02 27.82L43.53 26.83C44.68 24.61 42.03 22.61 40.44 24.5C39.54 25.58 38.78 25.88 38.02 25.48C36.38 24.6 37.98 21.9 40.61 21.11C43.94 20.12 47.03 22.83 46.63 26.38C46.24 29.85 44.4 30.81 38.13 30.82C34.56 30.83 33.62 30.73 33.19 30.3ZM19.34 27.99L17.31 25.82L18.67 23.39C19.42 22.05 20.17 20.82 20.33 20.64C20.67 20.28 25.59 21.36 26.2 21.93C26.41 22.13 26.64 23.5 26.7 24.97L26.81 27.65L24.31 28.9C22.93 29.59 21.7 30.15 21.58 30.16C21.47 30.16 20.46 29.18 19.34 27.99ZM30.69 22.8L29.56 21.83L30.04 20.56L30.52 19.29L31.97 19.18C33.71 19.06 33.91 19.22 34.18 20.96L34.38 22.3L33.28 22.96C32.67 23.32 32.09 23.65 32 23.7C31.91 23.74 31.32 23.34 30.69 22.8Z" fill="#fff" stroke="#000" stroke-width="3.0" stroke-linejoin="round" stroke-linecap="round" paint-order="stroke"/></svg>
