<svg xmlns="http://www.w3.org/2000/svg" viewBox="0 0 64 64" width="64" height="64"><rect x="11.86" y="11.86" width="40.28" height="40.28" rx="6.44" ry="6.44" fill="#5582A5" transform="rotate(45 32.0 32.0)"/><path d="M20.56 46.2C19.86 45.51 19.99 44.9 21.48 41.95C23.21 38.5 23.91 37.85 24.86 38.8L25.54 39.49L23.81 42.87C22.05 46.3 21.36 47.01 20.56 46.2ZM28.15 46.09C27.71 45.56 27.88 44.94 29.21 42.22C30.94 38.67 32 37.69 32.86 38.85C33.29 39.45 33.15 39.99 31.94 42.43C30.51 45.3 29.52 46.72 28.96 46.72C28.8 46.72 28.44 46.44 28.15 46.09ZM36.34 46.43C35.5 46.13 35.76 44.83 37.21 41.95C38.93 38.52 39.64 37.86 40.57 38.79L41.24 39.45L39.65 42.72C38.07 45.95 37.32 46.79 36.34 46.43ZM22.1 35.87C19.36 35 18.07 33.4 18.1 30.91C18.12 29 18.97 27.71 20.97 26.53C22.35 25.71 22.77 25.21 22.95 24.11C24.15 16.97 33.47 14.82 37.37 20.77C37.86 21.51 38.25 22.37 38.25 22.69C38.25 23.31 38.75 23.53 41.2 23.96C43.38 24.35 45.39 26.51 45.74 28.83C46.11 31.3 44.72 34.01 42.48 35.19L40.87 36.03L32 36.11C27.12 36.16 22.66 36.05 22.1 35.87Z" fill="#fff" stroke="#000" stroke-width="3.0" stroke-linejoin="round" stroke-linecap="round" paint-order="stroke"/></svg>
